<?xml version="1.0" standalone="no"?>
<!DOCTYPE svg PUBLIC "-//W3C//DTD SVG 20010904//EN"
 "http://www.w3.org/TR/2001/REC-SVG-20010904/DTD/svg10.dtd">
<svg version="1.0" xmlns="http://www.w3.org/2000/svg"
 width="108.000000pt" height="108.000000pt" viewBox="0 0 108.000000 108.000000"
 preserveAspectRatio="xMidYMid meet">
<metadata>
Created by potrace 1.14, written by Peter Selinger 2001-2017
</metadata>
<g transform="translate(0.000000,108.000000) scale(0.100000,-0.100000)"
fill="#000000" stroke="none">
<path d="M10 842 c0 -31 -3 -165 -7 -297 -5 -200 -4 -242 8 -252 8 -6 70 -26
139 -43 69 -17 140 -36 158 -43 30 -10 34 -9 70 26 21 20 48 37 60 37 25 0 28
10 10 28 -10 10 -10 15 2 22 8 5 19 10 23 10 14 0 20 -31 8 -43 -16 -16 -14
-47 3 -47 8 0 18 4 21 10 12 20 35 10 35 -15 0 -18 5 -25 19 -25 10 0 30 -9
44 -20 32 -25 57 -26 57 -1 0 12 12 23 33 32 17 7 56 30 85 52 80 58 117 70
186 63 55 -6 62 -4 88 21 l27 26 -92 45 c-51 24 -95 49 -98 54 -4 6 -9 31 -13
56 -9 67 -17 72 -106 72 l-78 0 -33 45 c-41 53 -69 66 -147 68 -45 2 -65 -2
-79 -15 -11 -10 -28 -18 -37 -18 -30 0 -73 38 -89 79 -17 42 -43 57 -81 47
-19 -5 -27 1 -42 29 -16 30 -25 35 -64 40 -25 3 -60 7 -77 10 l-33 4 0 -57z"/>
</g>
</svg>
